#N canvas 1231 202 509 606 12;
#X declare -lib Gem;
#X obj 49 98 phasor~;
#X floatatom 49 50 5 0 0 0 - - -;
#X obj 50 411 expr~ ($v1&255)/256;
#X obj 50 436 clip~ -1 1;
#X obj 51 525 dac~;
#X obj 106 133 env~;
#X obj 106 158 dbtorms;
#X floatatom 106 183 5 0 0 0 - - -;
#X floatatom 158 30 5 0 0 0 - - -;
#X obj 49 349 s~ t;
#X obj 50 387 r~ o;
#X obj 323 21 netreceive 9090;
#N canvas 0 50 450 300 Expr 0;
#X obj 0 0 r~ t;
#X obj 0 30 expr~ (($v1>>(-$v1*1.25>>12&1)*2)+$v1*2%3*(-$v1>>12&1)&$v1*.999>>5&-$v1>>5)+231
;
#X obj 0 60 s~ o;
#X connect 0 0 1 0;
#X connect 1 0 2 0;
#X restore 307 422 pd Expr;
#X obj 161 57 hsl 128 15 0 1 0 0 empty empty empty -2 -8 0 10 -262144
-1 -1 0 1;
#X msg 137 216 connect localhost 9292;
#X obj 106 262 netsend;
#X obj 165 490 env~;
#X obj 165 513 dbtorms;
#X obj 106 217 f;
#X msg 49 25 0.75;
#N canvas 945 273 450 300 part 0;
#X obj 0 0 par 0.3969 0.2116 0.0324 0.0169 0 0.4624 0.1049 1 2.3068
0.3364 22.5 318.096 0.036 1 28.348 4 cylinder;
#X obj 0 0 par 0.0225 0.0529 0.09 0.0729 0.16 0.3364 0.6184 10.0332
13.6456 0.1936 3.6 72.9 230.4 0 2.089 2 cube;
#X restore 359 203 pd part;
#X obj 358 179 declare -lib Gem;
#X obj 359 279 gemwin;
#X msg 359 252 destroy \, create \, 1;
#X obj 359 228 loadbang;
#X obj 400 74 s pd-part;
#X obj 307 280 symbol;
#X obj 49 1 loadbang;
#X obj 165 536 s env;
#X obj 323 46 route pha exp par;
#X obj 49 74 / 512;
#X obj 49 325 expr~ $v1*(1<<23);
#X msg 307 309 \; pd-Expr clear \, obj 0 0 r~ t \, obj 0 30 expr~ \$1
\, obj 0 99 s~ o \, connect 0 0 1 0 \, connect 1 0 2 0 \;;
#X obj 254 339 vsl 15 128 0 1 0 0 empty empty empty 0 -9 0 10 -262144
-1 -1 8000 1;
#X obj 51 470 *~;
#X connect 0 0 5 0;
#X connect 0 0 31 0;
#X connect 1 0 30 0;
#X connect 2 0 3 0;
#X connect 3 0 16 0;
#X connect 3 0 34 0;
#X connect 5 0 6 0;
#X connect 6 0 7 0;
#X connect 7 0 18 0;
#X connect 8 0 13 0;
#X connect 10 0 2 0;
#X connect 11 0 29 0;
#X connect 13 0 0 1;
#X connect 14 0 15 0;
#X connect 16 0 17 0;
#X connect 17 0 28 0;
#X connect 18 0 15 0;
#X connect 19 0 1 0;
#X connect 23 0 22 0;
#X connect 24 0 23 0;
#X connect 26 0 32 0;
#X connect 27 0 19 0;
#X connect 29 0 8 0;
#X connect 29 1 26 0;
#X connect 29 2 25 0;
#X connect 30 0 0 0;
#X connect 31 0 9 0;
#X connect 33 0 34 1;
#X connect 34 0 4 1;
#X connect 34 0 4 0;
