#N canvas 592 123 1151 803 12;
#X obj 36 -4 gemhead;
#X obj 48 44 part_head;
#X obj 301 844 part_render;
#X obj 54 198 part_color;
#X obj 462 -19 r env;
#X floatatom 462 3 5 0 0 0 - - -;
#X msg 977 642 draw line;
#X msg 1060 642 draw fill;
#X obj 683 931 \$17;
#X obj 130 142 list \$1 \$2 \$3;
#X obj 149 169 list \$4 \$5 \$6;
#X msg 721 223 bang;
#X obj 977 520 \$18;
#X obj 462 55 list prepend \$19;
#X obj 225 288 part_size;
#X obj 780 560 \$14;
#X obj 829 560 \$15;
#X obj 879 560 \$16;
#X obj 307 115 \$7;
#X obj 376 202 \$8;
#X obj 406 345 \$9;
#X obj 230 362 part_source;
#X obj 248 470 part_killold;
#X obj 255 661 part_velocity blob;
#X obj 501 377 \$10;
#X obj 551 377 \$11;
#X obj 601 377 \$12;
#X obj 651 377 \$13;
#X obj 551 609 pack f f f f;
#X obj 551 542 t b f;
#X obj 601 542 t b f;
#X obj 651 542 t b f;
#X obj 462 80 route 0 1 2 3 4 5 6 7 8 9;
#X obj 307 250 + 0.05;
#X obj 376 252 * 50;
#X obj 376 307 + 1;
#X obj 406 395 * 50;
#X obj 406 450 + 1;
#X obj 977 547 moses 0.5;
#X floatatom 174 304 5 0 0 0 - - -;
#X obj 376 278 * 1;
#X obj 406 419 * 1;
#X obj 501 486 * 1;
#X obj 551 497 * 1;
#X obj 601 497 * 1;
#X obj 651 497 * 1;
#X obj 780 586 * 1;
#X obj 828 586 * 1;
#X obj 879 586 * 1;
#X obj 462 27 t b f;
#X obj 406 370 pow 2;
#X floatatom 181 383 5 0 0 0 - - -;
#X floatatom 188 514 5 0 0 0 - - -;
#X obj 472 438 pow 2;
#X obj 522 438 pow 2;
#X obj 572 438 pow 2;
#X obj 622 438 pow 2;
#X obj 376 227 pow 2;
#X floatatom 657 728 5 0 0 0 - - -;
#X floatatom 730 697 5 0 0 0 - - -;
#X floatatom 805 716 5 0 0 0 - - -;
#X obj 307 211 * 1;
#X obj 780 612 * 360;
#X obj 829 612 * 360;
#X obj 878 612 * 360;
#X obj 301 819 rotateXYZ;
#X obj 48 82 accumrotate;
#X connect 0 0 1 0;
#X connect 1 0 66 0;
#X connect 2 0 8 0;
#X connect 3 0 14 0;
#X connect 4 0 5 0;
#X connect 5 0 49 0;
#X connect 6 0 8 0;
#X connect 7 0 8 0;
#X connect 9 0 3 1;
#X connect 10 0 3 2;
#X connect 11 0 9 0;
#X connect 11 0 10 0;
#X connect 11 0 12 0;
#X connect 11 0 18 0;
#X connect 11 0 19 0;
#X connect 11 0 20 0;
#X connect 11 0 24 0;
#X connect 11 0 25 0;
#X connect 11 0 26 0;
#X connect 11 0 27 0;
#X connect 11 0 15 0;
#X connect 11 0 16 0;
#X connect 11 0 17 0;
#X connect 12 0 38 0;
#X connect 13 0 32 0;
#X connect 14 0 21 0;
#X connect 15 0 46 0;
#X connect 16 0 47 0;
#X connect 17 0 48 0;
#X connect 18 0 61 0;
#X connect 19 0 57 0;
#X connect 20 0 50 0;
#X connect 21 0 22 0;
#X connect 22 0 23 0;
#X connect 23 0 65 0;
#X connect 24 0 53 0;
#X connect 25 0 54 0;
#X connect 26 0 55 0;
#X connect 27 0 56 0;
#X connect 28 0 23 2;
#X connect 29 0 28 0;
#X connect 29 1 28 1;
#X connect 30 0 28 0;
#X connect 30 1 28 2;
#X connect 31 0 28 0;
#X connect 31 1 28 3;
#X connect 32 0 61 1;
#X connect 32 1 40 1;
#X connect 32 2 41 1;
#X connect 32 3 42 1;
#X connect 32 4 43 1;
#X connect 32 5 44 1;
#X connect 32 6 45 1;
#X connect 32 7 66 1;
#X connect 32 8 66 2;
#X connect 32 9 66 3;
#X connect 33 0 14 1;
#X connect 33 0 39 0;
#X connect 34 0 40 0;
#X connect 35 0 21 1;
#X connect 35 0 51 0;
#X connect 36 0 41 0;
#X connect 37 0 22 1;
#X connect 37 0 52 0;
#X connect 38 0 6 0;
#X connect 38 1 7 0;
#X connect 40 0 35 0;
#X connect 41 0 37 0;
#X connect 42 0 28 0;
#X connect 43 0 29 0;
#X connect 44 0 30 0;
#X connect 45 0 31 0;
#X connect 46 0 62 0;
#X connect 47 0 63 0;
#X connect 48 0 64 0;
#X connect 49 0 11 0;
#X connect 49 1 13 0;
#X connect 50 0 36 0;
#X connect 53 0 42 0;
#X connect 54 0 43 0;
#X connect 55 0 44 0;
#X connect 56 0 45 0;
#X connect 57 0 34 0;
#X connect 61 0 33 0;
#X connect 62 0 58 0;
#X connect 62 0 65 1;
#X connect 63 0 59 0;
#X connect 63 0 65 2;
#X connect 64 0 60 0;
#X connect 64 0 65 3;
#X connect 65 0 2 0;
#X connect 66 0 3 0;
